<svg fill="none" height="40" viewBox="0 0 51 40" width="51" xmlns="http://www.w3.org/2000/svg" xmlns:xlink="http://www.w3.org/1999/xlink"><clipPath id="a"><path d="m0 0h51v40h-51z"/></clipPath><g clip-path="url(#a)" fill="#000"><path d="m41.3014 26.05c-.4333 0-.8667-.0833-1.3-.25-.4-.2-.7-.4833-.9-.85-.4667-.8667-.95-2.0167-1.45-3.45-.4667-1.4333-.9333-2.9667-1.4-4.6-.4333-1.6333-.8167-3.2-1.15-4.7-.0837-.385-.1611-.7542-.2321-1.1076-.2239-1.11338-1.4851-1.44533-2.0179-.4424-.5667 1.0333-1.1167 2.15-1.65 3.35s-1 2.2667-1.4 3.2c-.3667.9333-.6167 1.5-.75 1.7-.3.5333-.6667.9667-1.1 1.3s-1 .5-1.7.5c-.4667 0-.9333-.0667-1.4-.2s-.8833-.4667-1.25-1c-.7-1.0667-1.3667-2.35-2-3.85-.6-1.5333-1.15-3.1167-1.65-4.75-.5-1.66667-.9333-3.25-1.3-4.75-.159-.66499-.3055-1.28296-.4394-1.85391-.2636-1.12353.396-2.25409 1.501-2.58693 1.1946-.35982 2.4488.34543 2.7594 1.55378.0887.34532.1817.70767.279 1.08706.3333 1.3.7 2.65 1.1 4.05.4 1.36666.8 2.65 1.2 3.85.4174 1.1557 1.9231 1.13 2.4231.0075.3649-.8192.7405-1.6383 1.1269-2.4575.8667-1.76667 1.7167-3.38333 2.55-4.85.8333-1.5 1.6-2.7 2.3-3.6.7333-.9 1.3333-1.35 1.8-1.35.7 0 1.2167.216666 1.55.65.3333.4.5667.93333.7 1.6.1667.83333.3833 1.98333.65 3.45.3 1.43333.6167 3 .95 4.7.3667 1.7.75 3.35 1.15 4.95.429 1.5839 2.3916 1.7132 2.9482.1696.0849-.2354.1688-.4753.2518-.7196.6333-1.8 1.2-3.5833 1.7-5.35.2246-.80843.429-1.56644.6132-2.27401.3341-1.2831 1.6616-2.05479 2.932-1.67514 1.1361.33954 1.8281 1.48918 1.514 2.63264-.1348.49092-.2879 1.01309-.4592 1.56651-.4 1.3667-.8667 2.8167-1.4 4.35-.5 1.5-1.0333 2.9667-1.6 4.4-.5667 1.4-1.1 2.65-1.6 3.75s-.9333 1.9167-1.3 2.45c-.4.5667-.8167.95-1.25 1.15-.4.1667-.8333.25-1.3.25z"/><path d="m13.0343 4.35825c-.4715-.99161-1.6011-1.47599-2.6521-1.15824-1.31074.39627-1.96846 1.8597-1.41009 3.11001.48816 1.0931.99793 2.25643 1.52929 3.48999.9334 2.19999 1.8167 4.48329 2.65 6.84999.8334 2.4 1.5 4.7833 2 7.15.5334 2.3667.8 4.5833.8 6.65 0 1.2667-.2666 2.2667-.8 3-.5333.7667-1.2 1.3-2 1.6-.8.3333-1.6166.5-2.45.5-1.46664 0-2.66664-.2833-3.59997-.85-.93334-.5333-1.66667-1.2333-2.2-2.1-.14963-.2494-.28881-.5032-.41753-.7615-.51368-1.0309-1.59531-1.7334-2.72886-1.5296-1.311181.2357-2.146872 1.5685-1.56879 2.7688.762884 1.5839 1.78461 2.9247 3.06518 4.0223 1.86666 1.6 4.51666 2.4 7.94997 2.4 1.1 0 2.2167-.15 3.35-.45 1.1334-.2667 2.15-.75 3.05-1.45.9334-.7 1.6834-1.6667 2.25-2.9.5667-1.2.85-2.7167.85-4.55 0-1.8667-.2333-3.9333-.7-6.2-.4666-2.2667-1.1-4.6167-1.9-7.05s-1.7166-4.8667-2.75-7.29999c-.7446-1.81195-1.517-3.5592-2.3171-5.24176z"/></g></svg>